<svg>
  <defs>

    <g id="arrow">
          <svg viewBox="0 0 16 14" >
                <path d="M6.53682 0.393904C6.87155 0.059169 7.41427 0.059169 7.749 0.393904C8.08374 0.728639 8.08374 1.27135 7.749 1.60609L3.21205 6.14285H14.8572C15.2968 6.14285 15.6591 6.47374 15.7086 6.90003L15.7143 7C15.7143 7.47338 15.3306 7.85714 14.8572 7.85714H3.21205L7.749 12.3939C8.05799 12.7029 8.08176 13.1891 7.82031 13.5253L7.749 13.6061C7.41427 13.9408 6.87155 13.9408 6.53682 13.6061L0.536818 7.60609L0.474071 7.53609C0.472086 7.53362 0.470114 7.53113 0.468155 7.52864C0.463439 7.52272 0.458698 7.51651 0.454053 7.51026C0.438758 7.48954 0.424383 7.46823 0.410967 7.44628C0.404573 7.43595 0.39848 7.42548 0.392627 7.41491C0.383304 7.39796 0.374375 7.38047 0.366041 7.36265C0.359206 7.34808 0.352792 7.33325 0.346817 7.31828C0.340037 7.30135 0.333872 7.28439 0.328235 7.2672C0.324106 7.25444 0.320136 7.24125 0.316491 7.22799C0.311338 7.20951 0.306886 7.19092 0.303051 7.1721C0.300083 7.15717 0.297448 7.14224 0.29521 7.12725C0.28899 7.08602 0.285767 7.04338 0.285767 7L0.289166 7.0765C0.287391 7.05656 0.286311 7.03658 0.285926 7.01658L0.285767 7C0.285767 6.9945 0.285818 6.98903 0.285921 6.98356C0.28628 6.96398 0.287366 6.94371 0.289166 6.9235C0.290709 6.90584 0.29272 6.889 0.295212 6.87231C0.297448 6.85775 0.300083 6.84282 0.303115 6.82795C0.306887 6.80907 0.311338 6.79048 0.316384 6.77213C0.320136 6.75874 0.324105 6.74555 0.328399 6.73245C0.333871 6.7156 0.340037 6.69864 0.346713 6.68195C0.352792 6.66674 0.359206 6.65191 0.366058 6.63723C0.374375 6.61952 0.383304 6.60203 0.392803 6.5849C0.39848 6.57451 0.404573 6.56404 0.410906 6.55367C0.424383 6.53176 0.438758 6.51045 0.454035 6.48986C0.478892 6.45629 0.50648 6.42424 0.536818 6.3939L0.468155 6.47135C0.489483 6.44417 0.512418 6.4183 0.536818 6.3939L6.53682 0.393904Z" fill="currentColor"/>
        </svg>
     
    </g>

    <g id="calendar">
        <svg width="14" height="15" viewBox="0 0 14 15" fill="none" xmlns="http://www.w3.org/2000/svg">
<path d="M9.85721 0.571289C10.1728 0.571289 10.4286 0.827126 10.4286 1.14272L10.429 1.80547C10.909 1.88182 11.2197 2.00516 11.5318 2.17209C12.0905 2.4709 12.529 2.90939 12.8278 3.46813C13.0993 3.97574 13.2555 4.47961 13.2818 5.71361L13.2858 5.71415V9.89034L13.2827 10.2389C13.2594 11.5074 13.1027 12.0176 12.8278 12.5316C12.529 13.0903 12.0905 13.5288 11.5318 13.8276C10.9731 14.1264 10.4189 14.2856 8.89055 14.2856H5.10959L4.76099 14.2825C3.49257 14.2592 2.98237 14.1025 2.46833 13.8276C1.9096 13.5288 1.47111 13.0903 1.1723 12.5316C0.885438 11.9952 0.727309 11.463 0.715118 10.0691L0.714355 6.10938V5.71415C0.744642 4.47961 0.900823 3.97574 1.1723 3.46813C1.47111 2.90939 1.9096 2.4709 2.46833 2.17209C2.78059 2.00509 3.09143 1.88172 3.57168 1.80538L3.5715 1.14272C3.5715 0.827126 3.82734 0.571289 4.14293 0.571289C4.45852 0.571289 4.71436 0.827126 4.71436 1.14272L4.71382 1.71813C4.83809 1.71548 4.96976 1.71415 5.10959 1.71415H8.89055C9.03059 1.71415 9.16246 1.71548 9.28689 1.71814L9.28578 1.14272C9.28578 0.827126 9.54162 0.571289 9.85721 0.571289ZM12.1424 6.857H1.85721L1.85774 10.052L1.8628 10.3771C1.88501 11.2383 1.97601 11.611 2.18008 11.9926C2.37238 12.3522 2.64774 12.6275 3.0073 12.8198C3.43377 13.0479 3.84918 13.1348 4.9479 13.1422H9.05224L9.3773 13.1371C10.2385 13.1149 10.6113 13.0239 10.9928 12.8198C11.3524 12.6275 11.6278 12.3522 11.8201 11.9926C12.0481 11.5662 12.135 11.1508 12.1424 10.052L12.1424 6.857ZM9.8835 9.71415C10.1308 9.71415 10.3255 9.76056 10.4885 9.84771C10.6515 9.93487 10.7793 10.0628 10.8665 10.2257C10.9537 10.3887 11.0001 10.5834 11.0001 10.8307V10.8833C11.0001 11.1306 10.9537 11.3253 10.8665 11.4883C10.7793 11.6512 10.6515 11.7791 10.4885 11.8663C10.3255 11.9534 10.1308 11.9999 9.8835 11.9999H9.83092C9.58361 11.9999 9.3889 11.9534 9.22593 11.8663C9.06297 11.7791 8.93507 11.6512 8.84792 11.4883C8.76077 11.3253 8.71435 11.1306 8.71435 10.8833V10.8307C8.71435 10.5834 8.76077 10.3887 8.84792 10.2257C8.93507 10.0628 9.06297 9.93487 9.22593 9.84771C9.3889 9.76056 9.58361 9.71415 9.83092 9.71415H9.8835ZM9.05224 2.85753H4.9479L4.71436 2.86043V3.42843C4.71436 3.74402 4.45852 3.99986 4.14293 3.99986C3.82734 3.99986 3.5715 3.74402 3.5715 3.42843L3.57107 2.96701C3.35353 3.01725 3.18134 3.0868 3.0073 3.17987C2.64774 3.37217 2.37238 3.64753 2.18008 4.0071C1.96899 4.40181 1.87888 4.78706 1.86074 5.71337L12.1389 5.71415L12.1373 5.62263C12.1151 4.76139 12.0241 4.38867 11.8201 4.0071C11.6278 3.64753 11.3524 3.37217 10.9928 3.17987C10.8188 3.08682 10.6467 3.01728 10.4292 2.96705L10.4286 3.42843C10.4286 3.74402 10.1728 3.99986 9.85721 3.99986C9.54162 3.99986 9.28578 3.74402 9.28578 3.42843L9.28713 2.86055C9.21245 2.85908 9.13425 2.85808 9.05224 2.85753Z" fill="currentColor"/>
</svg>

    </g>

     <g id="comments">
            <svg width="13" height="14" viewBox="0 0 13 14" fill="none" xmlns="http://www.w3.org/2000/svg">
            <path d="M7.17731 9.63093C7.34745 9.48206 7.56584 9.40001 7.79191 9.40001H10.3333C11.002 9.40001 11.4 9.00197 11.4 8.33334V3C11.4 2.33138 11.002 1.93334 10.3333 1.93334H2.33333C1.6647 1.93334 1.26667 2.33138 1.26667 3V8.33334C1.26667 9.00197 1.6647 9.40001 2.33333 9.40001H3.99933C4.46554 9.53447 4.46554 9.53447 4.6 10.0007V11.8864L7.17731 9.63093ZM3.89 13.0217C3.57533 12.7857 3.4 12.3693 3.4 12V10.6H2.33333C1.00196 10.6 0.0666656 9.66471 0.0666656 8.33334V3C0.0666656 1.66863 1.00196 0.733337 2.33333 0.733337H10.3333C11.6647 0.733337 12.6 1.66863 12.6 3V8.33334C12.6 9.66471 11.6647 10.6 10.3333 10.6H7.89211L5.40896 12.7728C4.9204 13.252 4.34954 13.3663 3.89 13.0217Z" fill="currentColor"/>
        </svg>

     </g>


     <g id="checkbox">
           <svg width="14" height="14" viewBox="0 0 14 14" fill="none" xmlns="http://www.w3.org/2000/svg">
<path d="M9.24236 0.714355C10.3613 0.726174 10.9308 0.846757 11.5212 1.16253C12.0864 1.4648 12.5334 1.91178 12.8357 2.47697C13.1514 3.06742 13.272 3.63686 13.2838 4.75582V9.24236C13.272 10.3613 13.1514 10.9308 12.8357 11.5212C12.5334 12.0864 12.0864 12.5334 11.5212 12.8357C10.9308 13.1514 10.3613 13.272 9.24236 13.2838H4.75582C3.63686 13.272 3.06742 13.1514 2.47697 12.8357C1.91178 12.5334 1.4648 12.0864 1.16253 11.5212C0.846757 10.9308 0.726174 10.3613 0.714355 9.24236V4.75582C0.726174 3.63686 0.846757 3.06742 1.16253 2.47697C1.4648 1.91178 1.91178 1.4648 2.47697 1.16253C3.06742 0.846757 3.63686 0.726174 4.75582 0.714355H9.24236ZM9.05069 1.85624H4.9475L4.629 1.85902C3.78369 1.87505 3.40519 1.96214 3.01594 2.17032C2.64991 2.36607 2.36607 2.64991 2.17032 3.01594C1.96214 3.40519 1.87505 3.78369 1.85902 4.629L1.85624 4.9475V9.05069L1.85902 9.36919C1.87505 10.2145 1.96214 10.593 2.17032 10.9822C2.36607 11.3483 2.64991 11.6321 3.01594 11.8279C3.40519 12.036 3.78369 12.1231 4.629 12.1392L4.9475 12.1419H9.05069L9.36919 12.1392C10.2145 12.1231 10.593 12.036 10.9822 11.8279C11.3483 11.6321 11.6321 11.3483 11.8279 10.9822C12.036 10.593 12.1231 10.2145 12.1392 9.36919L12.1419 9.05069V4.9475L12.1392 4.629C12.1231 3.78369 12.036 3.40519 11.8279 3.01594C11.6321 2.64991 11.3483 2.36607 10.9822 2.17032C10.593 1.96214 10.2145 1.87505 9.36919 1.85902L9.05069 1.85624ZM9.08172 5.11029C9.30488 4.88713 9.66669 4.88713 9.88984 5.11029C10.113 5.33345 10.113 5.69526 9.88984 5.91841L6.68985 9.11842C6.46669 9.34157 6.10488 9.34157 5.88172 9.11842L4.39601 7.6327C4.17285 7.40954 4.17285 7.04773 4.39601 6.82458C4.61917 6.60142 4.98098 6.60142 5.20413 6.82458L6.28578 7.90623L9.08172 5.11029Z" fill="currentColor"/>
</svg>



     </g>

     <g id="brain">
     <svg width="16" height="18" viewBox="0 0 16 18" fill="none" xmlns="http://www.w3.org/2000/svg">
<path d="M7.98672 0.730832L8.14183 0.683403C10.1703 0.0941619 11.8771 0.733547 12.9508 2.30228L13.0216 2.409L13.1549 2.4642C15.9723 3.66897 16.4344 6.64409 15.1616 8.91336C15.8454 9.8342 15.9899 10.7486 15.6413 11.5944C15.4157 12.1417 15.0438 12.568 14.5339 12.9695L14.5066 12.9897L14.5101 13.1287C14.5257 14.9777 13.5494 15.9276 12.113 15.9456C11.7158 16.7655 11.0324 17.292 10.1039 17.4831C9.27724 17.6533 8.55014 17.493 7.97359 17.0197C6.85527 17.8794 4.90909 17.5375 3.92251 16.1281L3.82735 15.9833L3.80179 15.9826C2.13149 15.9088 1.25671 14.7859 1.41076 13.2142L1.42521 13.0869L1.38187 13.0647C0.334258 12.4773 -0.154268 11.1391 0.174956 9.86887L0.214915 9.72806C0.31582 9.40112 0.461957 9.10486 0.649142 8.84341C-0.575696 6.83663 8.0891e-05 3.44455 2.73911 2.55439L2.84664 2.52114L2.98484 2.34448C3.10038 2.19738 3.20306 2.07165 3.30834 1.95001C4.55925 0.50477 6.01412 -0.0438719 7.98672 0.730832ZM8.60722 1.88803L8.60637 15.8431C8.91942 16.2186 9.30273 16.3354 9.84462 16.2238C10.2546 16.1394 10.5613 15.9612 10.7828 15.6708C10.0984 15.3066 9.71048 14.5737 9.63652 13.5629C9.61061 13.2088 9.87666 12.9007 10.2308 12.8748C10.5848 12.8489 10.8929 13.1149 10.9188 13.469C10.9746 14.2321 11.211 14.552 11.6695 14.6259C12.7929 14.8071 13.3572 14.3379 13.2029 12.7435C13.1806 12.5127 13.2842 12.2878 13.4741 12.1549C13.9671 11.8098 14.299 11.477 14.4526 11.1044C14.5908 10.769 14.5712 10.4055 14.328 9.97609C13.4066 10.8019 12.0814 11.2441 11.3177 10.9226C10.9905 10.7848 10.8369 10.4078 10.9747 10.0806C11.1125 9.75341 11.4894 9.59984 11.8166 9.73762C12.1325 9.8706 13.3236 9.36107 13.8432 8.60173C15.0596 6.82391 14.7589 4.37922 12.3777 3.54076C12.2349 3.49047 12.1144 3.39138 12.0375 3.26096C11.2947 2.00151 10.1366 1.47992 8.60722 1.88803ZM4.28049 2.79144L4.0958 3.01307L3.73074 3.48078C3.64059 3.59669 3.51348 3.67824 3.37054 3.71187C1.43235 4.16791 0.921135 6.53091 1.63676 7.97778C2.45723 7.53102 3.55667 7.40565 4.84245 7.69256C5.18896 7.76988 5.40719 8.11347 5.32987 8.45999C5.25255 8.80651 4.90896 9.02473 4.56244 8.94741C2.8172 8.55798 1.75764 9.08923 1.44344 10.1072C1.18346 10.9496 1.54269 11.812 2.21006 12.029L2.30295 12.0545C2.65912 12.1349 2.87687 12.4955 2.78225 12.8481C2.44058 14.1217 2.88777 14.7733 4.17011 14.6948C4.43709 14.6784 4.6863 14.8291 4.79585 15.0731C5.32877 16.26 6.81917 16.4965 7.32219 15.8679L7.32049 1.8551C6.02589 1.40991 5.15921 1.77621 4.28049 2.79144ZM3.5628 10.335C4.27766 10.6031 4.85643 11.0143 5.28574 11.5663C5.7254 12.1316 5.95929 12.8176 5.98958 13.605C6.00322 13.9598 5.72668 14.2585 5.3719 14.2721C5.01712 14.2857 4.71846 14.0092 4.70481 13.6544C4.68453 13.127 4.53915 12.7006 4.27085 12.3556C3.9922 11.9974 3.61016 11.7259 3.11136 11.5388C2.77892 11.4142 2.61049 11.0436 2.73516 10.7112C2.85982 10.3788 3.23037 10.2103 3.5628 10.335ZM11.1605 4.68942C11.3529 5.35212 11.6129 5.79214 11.9197 6.02677C12.2136 6.25148 12.6416 6.35384 13.2296 6.31329C13.5838 6.28886 13.8908 6.55619 13.9152 6.91039C13.9396 7.26459 13.6723 7.57153 13.3181 7.59596C12.4396 7.65654 11.7046 7.48077 11.1387 7.04809C10.5859 6.62532 10.1885 5.95283 9.92579 5.04789C9.8268 4.70693 10.023 4.35028 10.3639 4.25129C10.7049 4.1523 11.0615 4.34846 11.1605 4.68942ZM6.18579 3.56231C6.53023 3.64842 6.73965 3.99745 6.65354 4.34189C6.4875 5.00605 6.1348 5.51747 5.60209 5.8371C5.12215 6.12506 4.59053 6.27005 4.01976 6.27005C3.66472 6.27005 3.3769 5.98223 3.3769 5.62719C3.3769 5.27215 3.66472 4.98433 4.01976 4.98433C4.35923 4.98433 4.662 4.90176 4.94059 4.7346C5.16642 4.59911 5.31941 4.37727 5.40621 4.03006C5.49232 3.68562 5.84135 3.4762 6.18579 3.56231Z" fill="currentColor"/>
</svg>
</g>


<g id="status">
 <svg width="18" height="18" viewBox="0 0 18 18" fill="none" xmlns="http://www.w3.org/2000/svg">
<path d="M8.99999 0.428558C13.7339 0.428558 17.5714 4.26612 17.5714 8.99999C17.5714 13.7339 13.7339 17.5714 8.99999 17.5714C4.26612 17.5714 0.428558 13.7339 0.428558 8.99999C0.428558 4.26612 4.26612 0.428558 8.99999 0.428558ZM8.99999 1.85713C5.0551 1.85713 1.85713 5.0551 1.85713 8.99999C1.85713 12.9449 5.0551 16.1428 8.99999 16.1428C12.9449 16.1428 16.1428 12.9449 16.1428 8.99999C16.1428 5.0551 12.9449 1.85713 8.99999 1.85713ZM8.99999 11.5714C9.55227 11.5714 9.99999 12.0191 9.99999 12.5714C9.99999 13.1237 9.55227 13.5714 8.99999 13.5714C8.4477 13.5714 7.99999 13.1237 7.99999 12.5714C7.99999 12.0191 8.4477 11.5714 8.99999 11.5714ZM9.05257 4.71427C9.22229 4.71427 9.32882 4.74079 9.42194 4.7906C9.51506 4.8404 9.58815 4.91348 9.63795 5.0066C9.68775 5.09972 9.71427 5.20626 9.71427 5.37597V9.76686C9.71427 9.93657 9.68775 10.0431 9.63795 10.1362C9.58815 10.2294 9.51506 10.3024 9.42194 10.3522C9.32882 10.402 9.22229 10.4286 9.05257 10.4286H8.9474C8.77769 10.4286 8.67115 10.402 8.57803 10.3522C8.48491 10.3024 8.41183 10.2294 8.36202 10.1362C8.31222 10.0431 8.2857 9.93657 8.2857 9.76686V5.37597C8.2857 5.20626 8.31222 5.09972 8.36202 5.0066C8.41183 4.91348 8.48491 4.8404 8.57803 4.7906C8.67115 4.74079 8.77769 4.71427 8.9474 4.71427H9.05257Z" fill="currentColor"/>
</svg>


</g>

  </defs>
</svg>