<svg>
  <defs>

    <g id="arrow">
          <svg viewBox="0 0 16 14" >
                <path d="M6.53682 0.393904C6.87155 0.059169 7.41427 0.059169 7.749 0.393904C8.08374 0.728639 8.08374 1.27135 7.749 1.60609L3.21205 6.14285H14.8572C15.2968 6.14285 15.6591 6.47374 15.7086 6.90003L15.7143 7C15.7143 7.47338 15.3306 7.85714 14.8572 7.85714H3.21205L7.749 12.3939C8.05799 12.7029 8.08176 13.1891 7.82031 13.5253L7.749 13.6061C7.41427 13.9408 6.87155 13.9408 6.53682 13.6061L0.536818 7.60609L0.474071 7.53609C0.472086 7.53362 0.470114 7.53113 0.468155 7.52864C0.463439 7.52272 0.458698 7.51651 0.454053 7.51026C0.438758 7.48954 0.424383 7.46823 0.410967 7.44628C0.404573 7.43595 0.39848 7.42548 0.392627 7.41491C0.383304 7.39796 0.374375 7.38047 0.366041 7.36265C0.359206 7.34808 0.352792 7.33325 0.346817 7.31828C0.340037 7.30135 0.333872 7.28439 0.328235 7.2672C0.324106 7.25444 0.320136 7.24125 0.316491 7.22799C0.311338 7.20951 0.306886 7.19092 0.303051 7.1721C0.300083 7.15717 0.297448 7.14224 0.29521 7.12725C0.28899 7.08602 0.285767 7.04338 0.285767 7L0.289166 7.0765C0.287391 7.05656 0.286311 7.03658 0.285926 7.01658L0.285767 7C0.285767 6.9945 0.285818 6.98903 0.285921 6.98356C0.28628 6.96398 0.287366 6.94371 0.289166 6.9235C0.290709 6.90584 0.29272 6.889 0.295212 6.87231C0.297448 6.85775 0.300083 6.84282 0.303115 6.82795C0.306887 6.80907 0.311338 6.79048 0.316384 6.77213C0.320136 6.75874 0.324105 6.74555 0.328399 6.73245C0.333871 6.7156 0.340037 6.69864 0.346713 6.68195C0.352792 6.66674 0.359206 6.65191 0.366058 6.63723C0.374375 6.61952 0.383304 6.60203 0.392803 6.5849C0.39848 6.57451 0.404573 6.56404 0.410906 6.55367C0.424383 6.53176 0.438758 6.51045 0.454035 6.48986C0.478892 6.45629 0.50648 6.42424 0.536818 6.3939L0.468155 6.47135C0.489483 6.44417 0.512418 6.4183 0.536818 6.3939L6.53682 0.393904Z" fill="currentColor"/>
        </svg>
     
    </g>

    <g id="calendar">
        <svg width="14" height="15" viewBox="0 0 14 15" fill="none" xmlns="http://www.w3.org/2000/svg">
<path d="M9.85721 0.571289C10.1728 0.571289 10.4286 0.827126 10.4286 1.14272L10.429 1.80547C10.909 1.88182 11.2197 2.00516 11.5318 2.17209C12.0905 2.4709 12.529 2.90939 12.8278 3.46813C13.0993 3.97574 13.2555 4.47961 13.2818 5.71361L13.2858 5.71415V9.89034L13.2827 10.2389C13.2594 11.5074 13.1027 12.0176 12.8278 12.5316C12.529 13.0903 12.0905 13.5288 11.5318 13.8276C10.9731 14.1264 10.4189 14.2856 8.89055 14.2856H5.10959L4.76099 14.2825C3.49257 14.2592 2.98237 14.1025 2.46833 13.8276C1.9096 13.5288 1.47111 13.0903 1.1723 12.5316C0.885438 11.9952 0.727309 11.463 0.715118 10.0691L0.714355 6.10938V5.71415C0.744642 4.47961 0.900823 3.97574 1.1723 3.46813C1.47111 2.90939 1.9096 2.4709 2.46833 2.17209C2.78059 2.00509 3.09143 1.88172 3.57168 1.80538L3.5715 1.14272C3.5715 0.827126 3.82734 0.571289 4.14293 0.571289C4.45852 0.571289 4.71436 0.827126 4.71436 1.14272L4.71382 1.71813C4.83809 1.71548 4.96976 1.71415 5.10959 1.71415H8.89055C9.03059 1.71415 9.16246 1.71548 9.28689 1.71814L9.28578 1.14272C9.28578 0.827126 9.54162 0.571289 9.85721 0.571289ZM12.1424 6.857H1.85721L1.85774 10.052L1.8628 10.3771C1.88501 11.2383 1.97601 11.611 2.18008 11.9926C2.37238 12.3522 2.64774 12.6275 3.0073 12.8198C3.43377 13.0479 3.84918 13.1348 4.9479 13.1422H9.05224L9.3773 13.1371C10.2385 13.1149 10.6113 13.0239 10.9928 12.8198C11.3524 12.6275 11.6278 12.3522 11.8201 11.9926C12.0481 11.5662 12.135 11.1508 12.1424 10.052L12.1424 6.857ZM9.8835 9.71415C10.1308 9.71415 10.3255 9.76056 10.4885 9.84771C10.6515 9.93487 10.7793 10.0628 10.8665 10.2257C10.9537 10.3887 11.0001 10.5834 11.0001 10.8307V10.8833C11.0001 11.1306 10.9537 11.3253 10.8665 11.4883C10.7793 11.6512 10.6515 11.7791 10.4885 11.8663C10.3255 11.9534 10.1308 11.9999 9.8835 11.9999H9.83092C9.58361 11.9999 9.3889 11.9534 9.22593 11.8663C9.06297 11.7791 8.93507 11.6512 8.84792 11.4883C8.76077 11.3253 8.71435 11.1306 8.71435 10.8833V10.8307C8.71435 10.5834 8.76077 10.3887 8.84792 10.2257C8.93507 10.0628 9.06297 9.93487 9.22593 9.84771C9.3889 9.76056 9.58361 9.71415 9.83092 9.71415H9.8835ZM9.05224 2.85753H4.9479L4.71436 2.86043V3.42843C4.71436 3.74402 4.45852 3.99986 4.14293 3.99986C3.82734 3.99986 3.5715 3.74402 3.5715 3.42843L3.57107 2.96701C3.35353 3.01725 3.18134 3.0868 3.0073 3.17987C2.64774 3.37217 2.37238 3.64753 2.18008 4.0071C1.96899 4.40181 1.87888 4.78706 1.86074 5.71337L12.1389 5.71415L12.1373 5.62263C12.1151 4.76139 12.0241 4.38867 11.8201 4.0071C11.6278 3.64753 11.3524 3.37217 10.9928 3.17987C10.8188 3.08682 10.6467 3.01728 10.4292 2.96705L10.4286 3.42843C10.4286 3.74402 10.1728 3.99986 9.85721 3.99986C9.54162 3.99986 9.28578 3.74402 9.28578 3.42843L9.28713 2.86055C9.21245 2.85908 9.13425 2.85808 9.05224 2.85753Z" fill="currentColor"/>
</svg>

    </g>

     <g id="comments">
            <svg width="13" height="14" viewBox="0 0 13 14" fill="none" xmlns="http://www.w3.org/2000/svg">
            <path d="M7.17731 9.63093C7.34745 9.48206 7.56584 9.40001 7.79191 9.40001H10.3333C11.002 9.40001 11.4 9.00197 11.4 8.33334V3C11.4 2.33138 11.002 1.93334 10.3333 1.93334H2.33333C1.6647 1.93334 1.26667 2.33138 1.26667 3V8.33334C1.26667 9.00197 1.6647 9.40001 2.33333 9.40001H3.99933C4.46554 9.53447 4.46554 9.53447 4.6 10.0007V11.8864L7.17731 9.63093ZM3.89 13.0217C3.57533 12.7857 3.4 12.3693 3.4 12V10.6H2.33333C1.00196 10.6 0.0666656 9.66471 0.0666656 8.33334V3C0.0666656 1.66863 1.00196 0.733337 2.33333 0.733337H10.3333C11.6647 0.733337 12.6 1.66863 12.6 3V8.33334C12.6 9.66471 11.6647 10.6 10.3333 10.6H7.89211L5.40896 12.7728C4.9204 13.252 4.34954 13.3663 3.89 13.0217Z" fill="currentColor"/>
        </svg>

     </g>


     <g id="checkbox">
            <svg width="16" height="10" viewBox="0 0 16 10" fill="none" xmlns="http://www.w3.org/2000/svg">
<path d="M5.85715 8.27556L2.07651 4.49492C1.79756 4.21598 1.3453 4.21598 1.06636 4.49492C0.787411 4.77387 0.787411 5.22613 1.06636 5.50508L5.35207 9.79079C5.63102 10.0697 6.08328 10.0697 6.36222 9.79079L14.9337 1.21936C15.2126 0.940416 15.2126 0.488155 14.9337 0.209209C14.6547 -0.0697365 14.2024 -0.0697365 13.9235 0.209209L5.85715 8.27556Z" fill="currentColor"/>
</svg>

     </g>

  </defs>
</svg>